<?xml version="1.0" encoding="utf-8"?>
<!-- Generator: Adobe Illustrator 27.0.0, SVG Export Plug-In . SVG Version: 6.00 Build 0)  -->
<svg version="1.1" id="Layer_1" xmlns="http://www.w3.org/2000/svg" xmlns:xlink="http://www.w3.org/1999/xlink" x="0px" y="0px"
	 viewBox="0 0 24 24" style="enable-background:new 0 0 24 24;" xml:space="preserve">
<style type="text/css">
	.st0{fill-rule:evenodd;clip-rule:evenodd;}
</style>
<path class="st0" d="M12,0c6.6,0,12,5.4,12,12s-5.4,12-12,12S0,18.6,0,12S5.4,0,12,0z M12,1c6.1,0,11,4.9,11,11s-4.9,11-11,11
	S1,18.1,1,12S5.9,1,12,1z M8.5,8.5c0.6,0,1,0.4,1,1s-0.4,1-1,1s-1-0.4-1-1S7.9,8.5,8.5,8.5z M15.5,8.5c0.6,0,1,0.4,1,1s-0.4,1-1,1
	s-1-0.4-1-1S14.9,8.5,15.5,8.5z"/>
</svg>
